<svg width="19" height="32" viewBox="0 0 19 32" fill="none" xmlns="http://www.w3.org/2000/svg">
<path fill-rule="evenodd" clip-rule="evenodd" d="M9.45027 0C9.89705 0 10.3206 0.199161 10.6055 0.543262L18.5558 10.1433C19.0842 10.7813 18.9953 11.7269 18.3572 12.2553C17.7192 12.7837 16.7736 12.6948 16.2452 12.0567L9.45027 3.85174L2.65531 12.0567C2.12692 12.6948 1.18134 12.7837 0.543303 12.2553C-0.0947365 11.7269 -0.183623 10.7813 0.344768 10.1433L8.295 0.543262C8.57997 0.199161 9.00349 0 9.45027 0ZM9.45028 31.8C9.0035 31.8 8.57997 31.6008 8.295 31.2567L0.34477 21.6567C-0.18362 21.0187 -0.0947341 20.0731 0.543305 19.5447C1.18134 19.0163 2.12692 19.1052 2.65531 19.7432L9.45028 27.9482L16.2452 19.7432C16.7736 19.1052 17.7192 19.0163 18.3572 19.5447C18.9953 20.0731 19.0842 21.0187 18.5558 21.6567L10.6055 31.2567C10.3206 31.6008 9.89705 31.8 9.45028 31.8ZM9.4503 17.5C10.3285 17.5 11.0403 16.7836 11.0403 15.9C11.0403 15.0163 10.3285 14.3 9.4503 14.3C8.57214 14.3 7.86025 15.0163 7.86025 15.9C7.86025 16.7836 8.57214 17.5 9.4503 17.5Z" fill="#F0B37A"/>
</svg>
